<?xml version="1.0" encoding="UTF-8" standalone="no"?>
<!DOCTYPE svg PUBLIC "-//W3C//DTD SVG 1.1//EN" "http://www.w3.org/Graphics/SVG/1.1/DTD/svg11.dtd">
<svg width="100%" height="100%" viewBox="0 0 594 686" version="1.1" xmlns="http://www.w3.org/2000/svg" xmlns:xlink="http://www.w3.org/1999/xlink" xml:space="preserve" style="fill-rule:evenodd;clip-rule:evenodd;stroke-linejoin:round;stroke-miterlimit:1.41421;">
    <g transform="matrix(0.41455,0,0,0.41455,-187.258,-134.76)">
        <path d="M1167,363L1858.09,762L1858.09,1560L1167,1959L475.912,1560L475.912,762L1167,363Z" style="fill:rgb(21,12,61);stroke-width:20.1px;stroke:rgb(250,206,50);"/>
    </g>
    <g transform="matrix(0.160595,0.0925569,-0.0925569,0.160595,148.162,455.446)">
        <path d="M-22.8,509.9L20.9,509.9L20.9,513.4C20.9,521.4 20,528.4 18.1,534.5C16.3,540.2 13.2,545.5 8.8,550.4C-1,561.5 -13.5,567 -28.7,567C-43.5,567 -56.2,561.7 -66.7,551C-77.3,540.3 -82.5,527.4 -82.5,512.3C-82.5,496.9 -77.1,483.9 -66.4,473.2C-55.7,462.5 -42.6,457.1 -27.2,457.1C-18.9,457.1 -11.2,458.8 -4,462.2C2.9,465.6 9.6,471 16.2,478.6L4.8,489.5C-3.9,477.9 -14.5,472.2 -26.9,472.2C-38.1,472.2 -47.5,476.1 -55.1,483.8C-62.7,491.4 -66.5,500.9 -66.5,512.3C-66.5,524.1 -62.3,533.8 -53.8,541.4C-45.9,548.5 -37.3,552 -28.1,552C-20.2,552 -13.2,549.4 -6.9,544.1C-0.6,538.8 2.9,532.4 3.6,525L-22.8,525L-22.8,509.9L-22.8,509.9Z" style="fill:rgb(72,75,251);fill-rule:nonzero;"/>
    </g>
    <g transform="matrix(0.160595,0.0925569,-0.0925569,0.160595,144.162,454.483)">
        <rect x="77.5" y="459.2" width="16" height="105.9" style="fill:rgb(72,75,251);fill-rule:nonzero;"/>
    </g>
    <g transform="matrix(0.160595,0.0925569,-0.0925569,0.160595,144.162,454.483)">
        <path d="M184.7,474.2L184.7,565L168.7,565L168.7,474.2L144.4,474.2L144.4,459.2L209,459.2L209,474.2L184.7,474.2ZM334.2,464.9L334.2,483.8C325,476.1 315.4,472.2 305.5,472.2C294.6,472.2 285.5,476.1 278,483.9C270.5,491.7 266.8,501.2 266.8,512.4C266.8,523.5 270.5,532.9 278,540.5C285.5,548.1 294.7,551.9 305.6,551.9C311.2,551.9 316,551 319.9,549.2C322.1,548.3 324.4,547.1 326.7,545.5C329.1,543.9 331.5,542.1 334.1,539.9L334.1,559.2C325,564.4 315.4,567 305.3,567C290.2,567 277.3,561.7 266.6,551.2C256,540.6 250.6,527.7 250.6,512.7C250.6,499.2 255.1,487.2 264,476.6C275,463.7 289.2,457.2 306.6,457.2C316.1,457.2 325.3,459.7 334.2,464.9" style="fill:rgb(72,75,251);fill-rule:nonzero;"/>
    </g>
    <g transform="matrix(0.160595,0.0925569,-0.0925569,0.160595,144.162,454.483)">
        <path d="M410.5,495C410.5,506.7 414.4,516.3 422.3,523.8C430.1,531.3 439.1,535.1 449.4,535.1C460.5,535.1 469.9,531.3 477.5,523.6C485.1,515.8 489,506.4 489,495.2C489,483.9 485.2,474.5 477.7,466.8C470.2,459.1 460.9,455.3 449.9,455.3C438.9,455.3 429.6,459.1 422,466.8C414.3,474.5 410.5,483.8 410.5,495M394.4,494.8C394.4,479.9 399.9,467.1 410.8,456.4C421.7,445.7 434.7,440.4 450,440.4C465.1,440.4 478,445.8 488.8,456.6C499.6,467.4 505,480.3 505,495.5C505,510.7 499.6,523.6 488.7,534.2C477.8,544.9 464.6,550.2 449.1,550.2C435.4,550.2 423.2,545.5 412.3,536C400.4,525.5 394.4,511.8 394.4,494.8" style="fill:rgb(221,64,102);fill-rule:nonzero;"/>
    </g>
    <g transform="matrix(0.160595,0.0925569,-0.0925569,0.160595,144.162,454.483)">
        <rect x="552.1" y="459.2" width="16" height="105.9" style="fill:rgb(72,75,251);fill-rule:nonzero;"/>
    </g>
    <g transform="matrix(0.160595,0.0925569,-0.0925569,0.160595,144.162,453.491)">
        <path d="M630,565.1L630,452L707.2,532.8L707.2,459.2L723.2,459.2L723.2,571.5L646,491L646,565.1L630,565.1Z" style="fill:rgb(72,75,251);fill-rule:nonzero;"/>
    </g>
    <g transform="matrix(0.342068,0,0,0.342068,-101.656,-46.5484)">
        <path d="M1167,363L1858.09,762L1858.09,1560L1167,1959L475.912,1560L475.912,762L1167,363Z" style="fill:rgb(250,206,50);"/>
    </g>
    <g transform="matrix(0.327232,0,0,0.327232,-85.3577,-29.3465)">
        <path d="M1167,363L1858.09,762L1858.09,1560L1167,1959L475.912,1560L475.912,762L1167,363Z" style="fill:rgb(221,65,102);"/>
    </g>
    <g transform="matrix(1,0,0,0.991632,-15,-16.8745)">
        <path d="M107,254L121,373.5L107,493L93,373.5L107,254Z" style="fill:white;"/>
    </g>
    <g transform="matrix(1,0,0,0.991632,390,-16.8745)">
        <path d="M107,254L121,373.5L107,493L93,373.5L107,254Z" style="fill:white;"/>
    </g>
    <g transform="matrix(-0.497028,0.867735,-0.859745,-0.492451,770.024,269.459)">
        <path d="M107,254L121,373.5L107,493L93,373.5L107,254Z" style="fill:white;"/>
    </g>
    <g transform="matrix(0.497028,0.867735,0.85122,-0.487568,-178.212,267.587)">
        <path d="M107,254L121,373.5L107,493L93,373.5L107,254Z" style="fill:white;"/>
    </g>
    <g transform="matrix(-0.497028,-0.867735,-0.860155,0.492687,770.128,437.139)">
        <path d="M107,254L121,373.5L107,493L93,373.5L107,254Z" style="fill:white;"/>
    </g>
    <g transform="matrix(0.497028,-0.867735,0.853288,0.488753,-178.951,438.647)">
        <path d="M107,254L121,373.5L107,493L93,373.5L107,254Z" style="fill:white;"/>
    </g>
    <g transform="matrix(1,0,0,1,130,234)">
        <path d="M164.5,350C168.395,313 176.184,313 180.079,316.7C183.974,320.4 183.974,327.8 180.079,335.2C177.353,340.75 170.342,346.3 164.5,350C158.658,346.3 151.647,340.75 148.921,335.2C145.026,327.8 145.026,320.4 148.921,316.7C152.816,313 160.605,313 164.5,350Z" style="fill:white;"/>
    </g>
    <g transform="matrix(0.602036,0.798469,-0.798469,0.602036,276.158,127.577)">
        <path d="M164.5,350C168.395,313 176.184,313 180.079,316.7C183.974,320.4 183.974,327.8 180.079,335.2C177.353,340.75 170.342,346.3 164.5,350C158.658,346.3 151.647,340.75 148.921,335.2C145.026,327.8 145.026,320.4 148.921,316.7C152.816,313 160.605,313 164.5,350Z" style="fill:white;"/>
    </g>
    <g transform="matrix(-0.468098,0.883677,-0.883677,-0.468098,481.441,256.31)">
        <path d="M164.5,350C168.395,313 176.184,313 180.079,316.7C183.974,320.4 183.974,327.8 180.079,335.2C177.353,340.75 170.342,346.3 164.5,350C158.658,346.3 151.647,340.75 148.921,335.2C145.026,327.8 145.026,320.4 148.921,316.7C152.816,313 160.605,313 164.5,350Z" style="fill:white;"/>
    </g>
    <g transform="matrix(-0.999635,0.0269999,-0.0269999,-0.999635,467.891,468.438)">
        <path d="M164.5,350C168.395,313 176.184,313 180.079,316.7C183.974,320.4 183.974,327.8 180.079,335.2C177.353,340.75 170.342,346.3 164.5,350C158.658,346.3 151.647,340.75 148.921,335.2C145.026,327.8 145.026,320.4 148.921,316.7C152.816,313 160.605,313 164.5,350Z" style="fill:white;"/>
    </g>
    <g transform="matrix(-0.586137,-0.810212,0.810212,-0.586137,306.334,576.084)">
        <path d="M164.5,350C168.395,313 176.184,313 180.079,316.7C183.974,320.4 183.974,327.8 180.079,335.2C177.353,340.75 170.342,346.3 164.5,350C158.658,346.3 151.647,340.75 148.921,335.2C145.026,327.8 145.026,320.4 148.921,316.7C152.816,313 160.605,313 164.5,350Z" style="fill:white;"/>
    </g>
    <g transform="matrix(0.555349,-0.831617,0.831617,0.555349,111.464,412.203)">
        <path d="M164.5,350C168.395,313 176.184,313 180.079,316.7C183.974,320.4 183.974,327.8 180.079,335.2C177.353,340.75 170.342,346.3 164.5,350C158.658,346.3 151.647,340.75 148.921,335.2C145.026,327.8 145.026,320.4 148.921,316.7C152.816,313 160.605,313 164.5,350Z" style="fill:white;"/>
    </g>
    <g transform="matrix(1,0,0,1,-33,0)">
        <g transform="matrix(0.892857,-2.18687e-16,2.18687e-16,0.892857,25.4643,14.1429)">
            <circle cx="219" cy="328" r="28" style="fill:rgb(250,206,50);"/>
        </g>
        <g transform="matrix(1,0,0,1,1,0)">
            <path d="M244,346.25C244,339.489 238.511,334 231.75,334L207.25,334C200.489,334 195,339.489 195,346.25L195,408.75C195,415.511 200.489,421 207.25,421L231.75,421C238.511,421 244,415.511 244,408.75L244,346.25Z" style="fill:rgb(250,206,50);"/>
        </g>
        <g transform="matrix(0.824566,-0.379235,0.417846,0.908518,-106.975,102.01)">
            <path d="M194,350.25C194,348.456 192.395,347 190.419,347L133.581,347C131.605,347 130,348.456 130,350.25L130,356.75C130,358.544 131.605,360 133.581,360L190.419,360C192.395,360 194,358.544 194,356.75L194,350.25Z" style="fill:rgb(250,206,50);"/>
        </g>
        <g transform="matrix(-0.824566,-0.379235,-0.417846,0.908518,546.602,102.01)">
            <path d="M194,350.25C194,348.456 192.395,347 190.419,347L133.581,347C131.605,347 130,348.456 130,350.25L130,356.75C130,358.544 131.605,360 133.581,360L190.419,360C192.395,360 194,358.544 194,356.75L194,350.25Z" style="fill:rgb(250,206,50);"/>
        </g>
        <g transform="matrix(6.69603e-16,-0.907595,-1,-6.97359e-16,562.212,589.674)">
            <path d="M194,350.25C194,348.456 192.395,347 190.419,347L133.581,347C131.605,347 130,348.456 130,350.25L130,356.75C130,358.544 131.605,360 133.581,360L190.419,360C192.395,360 194,358.544 194,356.75L194,350.25Z" style="fill:rgb(250,206,50);"/>
        </g>
        <g transform="matrix(6.69603e-16,-0.907595,-1,-6.97359e-16,585.212,589.674)">
            <path d="M194,350.25C194,348.456 192.395,347 190.419,347L133.581,347C131.605,347 130,348.456 130,350.25L130,356.75C130,358.544 131.605,360 133.581,360L190.419,360C192.395,360 194,358.544 194,356.75L194,350.25Z" style="fill:rgb(250,206,50);"/>
        </g>
    </g>
    <g transform="matrix(1,0,0,1,7,0)">
        <g transform="matrix(0.892857,-2.18687e-16,2.18687e-16,0.892857,202.464,14.1429)">
            <circle cx="219" cy="328" r="28" style="fill:rgb(250,206,50);"/>
        </g>
        <g transform="matrix(1,0,0,1,178,0)">
            <path d="M244,346.25C244,339.489 238.511,334 231.75,334L207.25,334C200.489,334 195,339.489 195,346.25L195,408.75C195,415.511 200.489,421 207.25,421L231.75,421C238.511,421 244,415.511 244,408.75L244,346.25Z" style="fill:rgb(250,206,50);"/>
        </g>
        <g transform="matrix(0.824566,-0.379235,0.417846,0.908518,70.0253,102.01)">
            <path d="M194,350.25C194,348.456 192.395,347 190.419,347L133.581,347C131.605,347 130,348.456 130,350.25L130,356.75C130,358.544 131.605,360 133.581,360L190.419,360C192.395,360 194,358.544 194,356.75L194,350.25Z" style="fill:rgb(250,206,50);"/>
        </g>
        <g transform="matrix(-0.824566,-0.379235,-0.417846,0.908518,723.602,102.01)">
            <path d="M194,350.25C194,348.456 192.395,347 190.419,347L133.581,347C131.605,347 130,348.456 130,350.25L130,356.75C130,358.544 131.605,360 133.581,360L190.419,360C192.395,360 194,358.544 194,356.75L194,350.25Z" style="fill:rgb(250,206,50);"/>
        </g>
        <g transform="matrix(6.69603e-16,-0.907595,-1,-6.97359e-16,739.212,589.674)">
            <path d="M194,350.25C194,348.456 192.395,347 190.419,347L133.581,347C131.605,347 130,348.456 130,350.25L130,356.75C130,358.544 131.605,360 133.581,360L190.419,360C192.395,360 194,358.544 194,356.75L194,350.25Z" style="fill:rgb(250,206,50);"/>
        </g>
        <g transform="matrix(6.69603e-16,-0.907595,-1,-6.97359e-16,762.212,589.674)">
            <path d="M194,350.25C194,348.456 192.395,347 190.419,347L133.581,347C131.605,347 130,348.456 130,350.25L130,356.75C130,358.544 131.605,360 133.581,360L190.419,360C192.395,360 194,358.544 194,356.75L194,350.25Z" style="fill:rgb(250,206,50);"/>
        </g>
    </g>
    <g transform="matrix(0.562436,0,0,0.562436,69.6598,202.393)">
        <g transform="matrix(0.892857,-2.18687e-16,2.18687e-16,0.892857,202.464,14.1429)">
            <circle cx="219" cy="328" r="28" style="fill:rgb(250,206,50);"/>
        </g>
        <g transform="matrix(1,0,0,1,178,0)">
            <path d="M244,346.25C244,339.489 238.511,334 231.75,334L207.25,334C200.489,334 195,339.489 195,346.25L195,408.75C195,415.511 200.489,421 207.25,421L231.75,421C238.511,421 244,415.511 244,408.75L244,346.25Z" style="fill:rgb(250,206,50);"/>
        </g>
        <g transform="matrix(0.555635,0.717634,-0.790698,0.612206,548.432,-6.49278)">
            <path d="M194,350.25C194,348.456 192.395,347 190.419,347L133.581,347C131.605,347 130,348.456 130,350.25L130,356.75C130,358.544 131.605,360 133.581,360L190.419,360C192.395,360 194,358.544 194,356.75L194,350.25Z" style="fill:rgb(250,206,50);"/>
        </g>
        <g transform="matrix(-0.692703,0.586423,0.646128,0.763229,326.125,-36.0834)">
            <path d="M194,350.25C194,348.456 192.395,347 190.419,347L133.581,347C131.605,347 130,348.456 130,350.25L130,356.75C130,358.544 131.605,360 133.581,360L190.419,360C192.395,360 194,358.544 194,356.75L194,350.25Z" style="fill:rgb(250,206,50);"/>
        </g>
        <g transform="matrix(6.69603e-16,-0.907595,-1,-6.97359e-16,739.212,589.674)">
            <path d="M194,350.25C194,348.456 192.395,347 190.419,347L133.581,347C131.605,347 130,348.456 130,350.25L130,356.75C130,358.544 131.605,360 133.581,360L190.419,360C192.395,360 194,358.544 194,356.75L194,350.25Z" style="fill:rgb(250,206,50);"/>
        </g>
        <g transform="matrix(6.69603e-16,-0.907595,-1,-6.97359e-16,762.212,589.674)">
            <path d="M194,350.25C194,348.456 192.395,347 190.419,347L133.581,347C131.605,347 130,348.456 130,350.25L130,356.75C130,358.544 131.605,360 133.581,360L190.419,360C192.395,360 194,358.544 194,356.75L194,350.25Z" style="fill:rgb(250,206,50);"/>
        </g>
    </g>
    <g transform="matrix(1.07955,0,0,1.44118,-38.1136,-172.059)">
        <path d="M454,424L366,424L388,390L432,390L454,424Z" style="fill:rgb(250,206,50);"/>
    </g>
    <path d="M174,268.75C174,268.336 173.664,268 173.25,268L171.75,268C171.336,268 171,268.336 171,268.75L171,290.25C171,290.664 171.336,291 171.75,291L173.25,291C173.664,291 174,290.664 174,290.25L174,268.75Z" style="fill:rgb(250,206,50);"/>
    <g transform="matrix(1,0,0,1,29,0)">
        <path d="M174,268.75C174,268.336 173.664,268 173.25,268L171.75,268C171.336,268 171,268.336 171,268.75L171,290.25C171,290.664 171.336,291 171.75,291L173.25,291C173.664,291 174,290.664 174,290.25L174,268.75Z" style="fill:rgb(250,206,50);"/>
    </g>
    <g transform="matrix(1,0,0,1,113,82)">
        <path d="M174,268.75C174,268.336 173.664,268 173.25,268L171.75,268C171.336,268 171,268.336 171,268.75L171,290.25C171,290.664 171.336,291 171.75,291L173.25,291C173.664,291 174,290.664 174,290.25L174,268.75Z" style="fill:rgb(250,206,50);"/>
    </g>
    <g transform="matrix(1,0,0,1,131,82)">
        <path d="M174,268.75C174,268.336 173.664,268 173.25,268L171.75,268C171.336,268 171,268.336 171,268.75L171,290.25C171,290.664 171.336,291 171.75,291L173.25,291C173.664,291 174,290.664 174,290.25L174,268.75Z" style="fill:rgb(250,206,50);"/>
    </g>
    <g transform="matrix(1,0,0,1,216,7)">
        <path d="M174,268.75C174,268.336 173.664,268 173.25,268L171.75,268C171.336,268 171,268.336 171,268.75L171,290.25C171,290.664 171.336,291 171.75,291L173.25,291C173.664,291 174,290.664 174,290.25L174,268.75Z" style="fill:rgb(250,206,50);"/>
    </g>
    <g transform="matrix(1,0,0,1,250,7)">
        <path d="M174,268.75C174,268.336 173.664,268 173.25,268L171.75,268C171.336,268 171,268.336 171,268.75L171,290.25C171,290.664 171.336,291 171.75,291L173.25,291C173.664,291 174,290.664 174,290.25L174,268.75Z" style="fill:rgb(250,206,50);"/>
    </g>
</svg>
